<svg width="30" height="31" viewBox="0 0 30 31" fill="none" xmlns="http://www.w3.org/2000/svg">
<path id="Vector" d="M9.21094 24.2501C7.60677 24.2501 6.30885 25.5626 6.30885 27.1667C6.30885 28.7709 7.60677 30.0834 9.21094 30.0834C10.8151 30.0834 12.1276 28.7709 12.1276 27.1667C12.1276 25.5626 10.8151 24.2501 9.21094 24.2501ZM0.460938 0.916748V3.83341H3.3776L8.6276 14.9022L6.65885 18.4751C6.42552 18.8834 6.29427 19.3647 6.29427 19.8751C6.29427 21.4792 7.60677 22.7917 9.21094 22.7917H26.7109V19.8751H9.82344C9.61927 19.8751 9.45885 19.7147 9.45885 19.5105L9.5026 19.3355L10.8151 16.9584H21.6797C22.7734 16.9584 23.7359 16.3605 24.2318 15.4563L29.4526 5.99175C29.5693 5.78758 29.6276 5.53966 29.6276 5.29175C29.6276 4.48966 28.9714 3.83341 28.1693 3.83341H6.60052L5.22969 0.916748H0.460938ZM23.7943 24.2501C22.1901 24.2501 20.8922 25.5626 20.8922 27.1667C20.8922 28.7709 22.1901 30.0834 23.7943 30.0834C25.3984 30.0834 26.7109 28.7709 26.7109 27.1667C26.7109 25.5626 25.3984 24.2501 23.7943 24.2501Z" fill="#821E6B"/>
</svg>
