<svg width="21" height="20" viewBox="0 0 21 20" fill="none" xmlns="http://www.w3.org/2000/svg">
<g id="Search" clip-path="url(#clip0_4871_383)">
<path id="Vector" d="M13.5625 11.6667H12.8712L12.6262 11.4417C13.4837 10.4917 14 9.25833 14 7.91667C14 4.925 11.4537 2.5 8.3125 2.5C5.17125 2.5 2.625 4.925 2.625 7.91667C2.625 10.9083 5.17125 13.3333 8.3125 13.3333C9.72125 13.3333 11.0162 12.8417 12.0137 12.025L12.25 12.2583V12.9167L16.625 17.075L17.9287 15.8333L13.5625 11.6667ZM8.3125 11.6667C6.13375 11.6667 4.375 9.99167 4.375 7.91667C4.375 5.84167 6.13375 4.16667 8.3125 4.16667C10.4912 4.16667 12.25 5.84167 12.25 7.91667C12.25 9.99167 10.4912 11.6667 8.3125 11.6667Z" fill="rgba(130,30,107)"/>
</g>
<defs>
<clipPath id="clip0_4871_383">
<rect width="21" height="20" fill="white" />
</clipPath>
</defs>
</svg>
