<svg width="200" height="32" viewBox="0 0 200 32" fill="none" xmlns="http://www.w3.org/2000/svg">
<g id="sm icon footer">
<path id="instagram" d="M57.1986 13.0063C55.7221 13.0063 54.5305 14.343 54.5305 15.9993C54.5305 17.6557 55.7221 18.9924 57.1986 18.9924C58.6751 18.9924 59.8666 17.6557 59.8666 15.9993C59.8666 14.343 58.6751 13.0063 57.1986 13.0063ZM57.1986 17.9446C56.2438 17.9446 55.4646 17.0705 55.4646 15.9993C55.4646 14.9282 56.2438 14.0541 57.1986 14.0541C58.1534 14.0541 58.9326 14.9282 58.9326 15.9993C58.9326 17.0705 58.1534 17.9446 57.1986 17.9446ZM59.9759 12.1861C59.6312 12.1861 59.3528 12.4984 59.3528 12.8852C59.3528 13.2719 59.6312 13.5842 59.9759 13.5842C60.3206 13.5842 60.599 13.2733 60.599 12.8852C60.5991 12.7933 60.5831 12.7024 60.5518 12.6175C60.5205 12.5327 60.4746 12.4556 60.4167 12.3906C60.3589 12.3257 60.2901 12.2742 60.2145 12.2391C60.1388 12.204 60.0578 12.186 59.9759 12.1861ZM62.3994 15.9993C62.3994 15.1938 62.4059 14.3956 62.3656 13.5915C62.3252 12.6575 62.1353 11.8286 61.5265 11.1457C60.9164 10.4612 60.1788 10.2496 59.3463 10.2044C58.6282 10.1592 57.9167 10.1664 57.1999 10.1664C56.4818 10.1664 55.7703 10.1592 55.0535 10.2044C54.2209 10.2496 53.4821 10.4627 52.8733 11.1457C52.2632 11.8301 52.0745 12.6575 52.0342 13.5915C51.9939 14.397 52.0004 15.1953 52.0004 15.9993C52.0004 16.8034 51.9939 17.6031 52.0342 18.4072C52.0745 19.3412 52.2645 20.1701 52.8733 20.853C53.4834 21.5375 54.2209 21.7491 55.0535 21.7943C55.7716 21.8395 56.4831 21.8322 57.1999 21.8322C57.918 21.8322 58.6295 21.8395 59.3463 21.7943C60.1788 21.7491 60.9177 21.536 61.5265 20.853C62.1366 20.1686 62.3252 19.3412 62.3656 18.4072C62.4072 17.6031 62.3994 16.8049 62.3994 15.9993ZM61.2546 19.4404C61.1597 19.706 61.0452 19.9045 60.8618 20.1088C60.6784 20.3146 60.5027 20.443 60.266 20.5495C59.5817 20.8545 57.957 20.7859 57.1986 20.7859C56.4402 20.7859 54.8141 20.8545 54.1299 20.551C53.8931 20.4444 53.7162 20.316 53.5341 20.1103C53.3507 19.9045 53.2362 19.7075 53.1412 19.4419C52.8707 18.6728 52.9318 16.8501 52.9318 15.9993C52.9318 15.1486 52.8707 13.3244 53.1412 12.5568C53.2362 12.2912 53.3507 12.0928 53.5341 11.8884C53.7175 11.6841 53.8931 11.5543 54.1299 11.4477C54.8141 11.1442 56.4402 11.2128 57.1986 11.2128C57.957 11.2128 59.583 11.1442 60.2673 11.4477C60.504 11.5543 60.681 11.6827 60.8631 11.8884C61.0465 12.0942 61.161 12.2912 61.2559 12.5568C61.5265 13.3244 61.4654 15.1486 61.4654 15.9993C61.4654 16.8501 61.5265 18.6728 61.2546 19.4404Z" fill="black"/>
<path id="twitter" d="M150.397 11.5519C149.897 11.7797 149.352 11.9436 148.792 12.0075C149.374 11.6424 149.81 11.0655 150.018 10.3852C149.471 10.7283 148.873 10.9689 148.249 11.0962C147.988 10.8019 147.673 10.5673 147.323 10.4073C146.972 10.2473 146.594 10.1651 146.213 10.166C144.668 10.166 143.426 11.488 143.426 13.1103C143.426 13.3381 143.452 13.5659 143.495 13.7851C141.182 13.6574 139.119 12.4907 137.748 10.7045C137.498 11.1551 137.367 11.6682 137.369 12.1904C137.369 13.2121 137.861 14.113 138.611 14.6428C138.169 14.6245 137.737 14.4961 137.351 14.2683V14.3046C137.351 15.7353 138.309 16.9209 139.585 17.1936C139.346 17.2594 139.099 17.293 138.851 17.2937C138.67 17.2937 138.498 17.2747 138.325 17.2489C138.678 18.4155 139.706 19.2629 140.93 19.2905C139.973 20.0827 138.773 20.5487 137.47 20.5487C137.237 20.5487 137.021 20.54 136.797 20.5124C138.032 21.3494 139.499 21.8327 141.077 21.8327C146.203 21.8327 149.008 17.349 149.008 13.4572C149.008 13.3295 149.008 13.2018 148.999 13.0741C149.542 12.6547 150.018 12.1352 150.397 11.5519Z" fill="black"/>
<path id="facebook" d="M15.353 21.8327V16.5196H17.2484L17.5302 14.4394H15.353V13.1144C15.353 12.5141 15.5298 12.1031 16.4409 12.1031H17.5953V10.2485C17.0336 10.1915 16.469 10.164 15.9041 10.1661C14.2287 10.1661 13.0784 11.1333 13.0784 12.9089V14.4355H11.1953V16.5157H13.0825V21.8327H15.353Z" fill="black"/>
<g id="linkedin">
<path id="Vector" d="M94.2501 13.1064C95.2253 13.1064 96.0158 12.4637 96.0158 11.6709C96.0158 10.8781 95.2253 10.2354 94.2501 10.2354C93.2749 10.2354 92.4844 10.8781 92.4844 11.6709C92.4844 12.4637 93.2749 13.1064 94.2501 13.1064Z" fill="black"/>
<path id="Vector_2" d="M97.8265 13.7537V21.8084H100.836V17.8252C100.836 16.7742 101.074 15.7563 102.643 15.7563C104.189 15.7563 104.209 16.958 104.209 17.8916V21.8091H107.22V17.3919C107.22 15.2222 106.658 13.5547 103.606 13.5547C102.14 13.5547 101.158 14.2229 100.756 14.8552H100.716V13.7537H97.8265ZM92.9219 13.7537H95.9364V21.8084H92.9219V13.7537Z" fill="black"/>
</g>
<path id="mail" d="M184.996 12.5873C185.912 12.5873 186.775 12.9988 187.407 13.6422V13.6441C187.407 13.3352 187.613 13.1015 187.896 13.1015H187.968C188.415 13.1015 188.505 13.529 188.505 13.6639L188.507 18.4654C188.476 18.7801 188.828 18.9427 189.023 18.7406C189.782 17.949 190.692 14.6671 188.55 12.767C186.552 10.9935 183.871 11.2865 182.445 12.2821C180.93 13.3431 179.961 15.6867 180.902 17.8893C181.929 20.2907 184.867 21.007 186.615 20.2926C187.5 19.9304 187.908 21.1411 186.988 21.5375C185.602 22.1368 181.738 22.0756 179.934 18.9089C178.715 16.7698 178.779 13.0068 182.014 11.0573C184.486 9.56499 187.748 9.97845 189.714 12.0591C191.769 14.2362 191.65 18.3096 189.644 19.8932C188.736 20.6133 187.386 19.9129 187.396 18.8637L187.386 18.5217C186.754 19.1567 185.912 19.5291 184.996 19.5291C183.183 19.5291 181.588 17.9117 181.588 16.077C181.588 14.2225 183.183 12.588 184.996 12.588V12.5873ZM187.275 15.9444C187.206 14.6002 186.222 13.7908 185.033 13.7908H184.988C183.617 13.7908 182.855 14.8853 182.855 16.126C182.855 17.5173 183.775 18.3959 184.982 18.3959C186.329 18.3959 187.214 17.3968 187.278 16.215L187.275 15.9444Z" fill="black"/>
<path id="Ellipse 186" d="M28.2999 16C28.2999 24.0276 22.0577 30.5 14.4 30.5C6.74227 30.5 0.5 24.0276 0.5 16C0.5 7.97244 6.74227 1.5 14.4 1.5C22.0577 1.5 28.2999 7.97244 28.2999 16Z" stroke="black"/>
<path id="Ellipse 187" d="M70.703 16C70.703 24.0412 64.627 30.5 57.2031 30.5C49.7792 30.5 43.7031 24.0412 43.7031 16C43.7031 7.95882 49.7792 1.5 57.2031 1.5C64.627 1.5 70.703 7.95882 70.703 16Z" stroke="black"/>
<ellipse id="Ellipse 188" cx="100.002" cy="16" rx="14.4" ry="15" stroke="black"/>
<path id="Ellipse 189" d="M156.305 16C156.305 24.0412 150.229 30.5 142.805 30.5C135.381 30.5 129.305 24.0412 129.305 16C129.305 7.95882 135.381 1.5 142.805 1.5C150.229 1.5 156.305 7.95882 156.305 16Z" stroke="black"/>
<path id="Ellipse 190" d="M199.495 16C199.495 24.0276 193.253 30.5 185.595 30.5C177.938 30.5 171.695 24.0276 171.695 16C171.695 7.97244 177.938 1.5 185.595 1.5C193.253 1.5 199.495 7.97244 199.495 16Z" stroke="black"/>
</g>
</svg>
